<mxfile host="app.diagrams.net" modified="2022-08-20T16:32:40.955Z" agent="5.0 (Windows NT 10.0; Win64; x64) AppleWebKit/537.36 (KHTML, like Gecko) Chrome/104.0.0.0 Safari/537.36" etag="EpgBKW0qpo-MfCD6dpqi" version="20.2.5" type="github">
  <diagram id="C5RBs43oDa-KdzZeNtuy" name="Page-1">
    <mxGraphModel dx="845" dy="429" grid="1" gridSize="10" guides="1" tooltips="1" connect="1" arrows="1" fold="1" page="1" pageScale="1" pageWidth="827" pageHeight="1169" math="0" shadow="0">
      <root>
        <mxCell id="WIyWlLk6GJQsqaUBKTNV-0" />
        <mxCell id="WIyWlLk6GJQsqaUBKTNV-1" parent="WIyWlLk6GJQsqaUBKTNV-0" />
        <mxCell id="V7zFwvD_TTf8r489moun-1" value="&lt;b&gt;start&lt;br&gt;&lt;/b&gt;" style="ellipse;whiteSpace=wrap;html=1;fontFamily=Verdana;" vertex="1" parent="WIyWlLk6GJQsqaUBKTNV-1">
          <mxGeometry x="330" y="30" width="80" height="40" as="geometry" />
        </mxCell>
        <mxCell id="V7zFwvD_TTf8r489moun-2" value="" style="endArrow=classic;html=1;rounded=0;fontFamily=Verdana;entryX=0.5;entryY=1;entryDx=0;entryDy=0;" edge="1" parent="WIyWlLk6GJQsqaUBKTNV-1" target="V7zFwvD_TTf8r489moun-1">
          <mxGeometry width="50" height="50" relative="1" as="geometry">
            <mxPoint x="370" y="150" as="sourcePoint" />
            <mxPoint x="440" y="180" as="targetPoint" />
            <Array as="points" />
          </mxGeometry>
        </mxCell>
        <mxCell id="V7zFwvD_TTf8r489moun-7" value="" style="edgeStyle=none;rounded=0;orthogonalLoop=1;jettySize=auto;html=1;fontFamily=Verdana;" edge="1" parent="WIyWlLk6GJQsqaUBKTNV-1" source="V7zFwvD_TTf8r489moun-4" target="V7zFwvD_TTf8r489moun-6">
          <mxGeometry relative="1" as="geometry" />
        </mxCell>
        <mxCell id="V7zFwvD_TTf8r489moun-11" style="edgeStyle=none;rounded=0;orthogonalLoop=1;jettySize=auto;html=1;fontFamily=Verdana;" edge="1" parent="WIyWlLk6GJQsqaUBKTNV-1" source="V7zFwvD_TTf8r489moun-4">
          <mxGeometry relative="1" as="geometry">
            <mxPoint x="370" y="200" as="targetPoint" />
            <Array as="points">
              <mxPoint x="370" y="150" />
            </Array>
          </mxGeometry>
        </mxCell>
        <mxCell id="V7zFwvD_TTf8r489moun-4" value="i = 1&lt;br&gt;" style="rounded=1;whiteSpace=wrap;html=1;fontFamily=Verdana;fontStyle=1" vertex="1" parent="WIyWlLk6GJQsqaUBKTNV-1">
          <mxGeometry x="310" y="90" width="120" height="40" as="geometry" />
        </mxCell>
        <mxCell id="V7zFwvD_TTf8r489moun-10" style="edgeStyle=none;rounded=0;orthogonalLoop=1;jettySize=auto;html=1;fontFamily=Verdana;" edge="1" parent="WIyWlLk6GJQsqaUBKTNV-1">
          <mxGeometry relative="1" as="geometry">
            <mxPoint x="370" y="230" as="targetPoint" />
            <mxPoint x="370" y="220" as="sourcePoint" />
          </mxGeometry>
        </mxCell>
        <mxCell id="V7zFwvD_TTf8r489moun-6" value="&lt;b&gt;sum = 0&lt;/b&gt;" style="whiteSpace=wrap;html=1;fontFamily=Verdana;rounded=1;fontStyle=0;" vertex="1" parent="WIyWlLk6GJQsqaUBKTNV-1">
          <mxGeometry x="310" y="140" width="120" height="30" as="geometry" />
        </mxCell>
        <mxCell id="V7zFwvD_TTf8r489moun-8" value="&lt;b&gt;series = &quot;&quot;&lt;/b&gt;" style="rounded=1;whiteSpace=wrap;html=1;fontFamily=Verdana;fontStyle=0;" vertex="1" parent="WIyWlLk6GJQsqaUBKTNV-1">
          <mxGeometry x="310" y="180" width="120" height="30" as="geometry" />
        </mxCell>
        <mxCell id="V7zFwvD_TTf8r489moun-30" value="" style="edgeStyle=none;rounded=0;orthogonalLoop=1;jettySize=auto;html=1;fontFamily=Verdana;startArrow=none;" edge="1" parent="WIyWlLk6GJQsqaUBKTNV-1" source="V7zFwvD_TTf8r489moun-20" target="V7zFwvD_TTf8r489moun-27">
          <mxGeometry relative="1" as="geometry" />
        </mxCell>
        <mxCell id="V7zFwvD_TTf8r489moun-14" value="ENTER A NUMBER&lt;br&gt;&lt;br&gt;GET N" style="shape=parallelogram;perimeter=parallelogramPerimeter;whiteSpace=wrap;html=1;fixedSize=1;fontFamily=Verdana;rounded=1;fontStyle=1;" vertex="1" parent="WIyWlLk6GJQsqaUBKTNV-1">
          <mxGeometry x="290" y="220" width="170" height="50" as="geometry" />
        </mxCell>
        <mxCell id="V7zFwvD_TTf8r489moun-28" value="" style="edgeStyle=none;rounded=0;orthogonalLoop=1;jettySize=auto;html=1;fontFamily=Verdana;" edge="1" parent="WIyWlLk6GJQsqaUBKTNV-1" source="V7zFwvD_TTf8r489moun-20" target="V7zFwvD_TTf8r489moun-27">
          <mxGeometry relative="1" as="geometry" />
        </mxCell>
        <mxCell id="V7zFwvD_TTf8r489moun-37" value="" style="edgeStyle=none;rounded=0;orthogonalLoop=1;jettySize=auto;html=1;fontFamily=Verdana;" edge="1" parent="WIyWlLk6GJQsqaUBKTNV-1" source="V7zFwvD_TTf8r489moun-27" target="V7zFwvD_TTf8r489moun-36">
          <mxGeometry relative="1" as="geometry" />
        </mxCell>
        <mxCell id="V7zFwvD_TTf8r489moun-27" value="i&amp;lt;N" style="shape=trapezoid;perimeter=trapezoidPerimeter;whiteSpace=wrap;html=1;fixedSize=1;fontFamily=Verdana;" vertex="1" parent="WIyWlLk6GJQsqaUBKTNV-1">
          <mxGeometry x="309" y="350" width="120" height="30" as="geometry" />
        </mxCell>
        <mxCell id="V7zFwvD_TTf8r489moun-20" value="LOOP" style="ellipse;whiteSpace=wrap;html=1;aspect=fixed;fontFamily=Verdana;" vertex="1" parent="WIyWlLk6GJQsqaUBKTNV-1">
          <mxGeometry x="335" y="290" width="50" height="50" as="geometry" />
        </mxCell>
        <mxCell id="V7zFwvD_TTf8r489moun-31" value="" style="edgeStyle=none;rounded=0;orthogonalLoop=1;jettySize=auto;html=1;fontFamily=Verdana;endArrow=none;" edge="1" parent="WIyWlLk6GJQsqaUBKTNV-1" source="V7zFwvD_TTf8r489moun-14" target="V7zFwvD_TTf8r489moun-20">
          <mxGeometry relative="1" as="geometry">
            <mxPoint x="374.0322580645161" y="270" as="sourcePoint" />
            <mxPoint x="369.58064516129025" y="385" as="targetPoint" />
          </mxGeometry>
        </mxCell>
        <mxCell id="V7zFwvD_TTf8r489moun-34" value="" style="endArrow=none;dashed=1;html=1;rounded=0;fontFamily=Verdana;" edge="1" parent="WIyWlLk6GJQsqaUBKTNV-1">
          <mxGeometry width="50" height="50" relative="1" as="geometry">
            <mxPoint x="385" y="310" as="sourcePoint" />
            <mxPoint x="370" y="600" as="targetPoint" />
            <Array as="points">
              <mxPoint x="515" y="310" />
              <mxPoint x="515" y="630" />
              <mxPoint x="370" y="630" />
            </Array>
          </mxGeometry>
        </mxCell>
        <mxCell id="V7zFwvD_TTf8r489moun-42" value="" style="edgeStyle=none;rounded=0;orthogonalLoop=1;jettySize=auto;html=1;fontFamily=Verdana;" edge="1" parent="WIyWlLk6GJQsqaUBKTNV-1" source="V7zFwvD_TTf8r489moun-36" target="V7zFwvD_TTf8r489moun-41">
          <mxGeometry relative="1" as="geometry" />
        </mxCell>
        <mxCell id="V7zFwvD_TTf8r489moun-36" value="sum = sum + (i*i)" style="whiteSpace=wrap;html=1;fontFamily=Verdana;" vertex="1" parent="WIyWlLk6GJQsqaUBKTNV-1">
          <mxGeometry x="309" y="400" width="120" height="40" as="geometry" />
        </mxCell>
        <mxCell id="V7zFwvD_TTf8r489moun-38" value="YES" style="text;html=1;align=center;verticalAlign=middle;resizable=0;points=[];autosize=1;strokeColor=none;fillColor=none;fontFamily=Verdana;" vertex="1" parent="WIyWlLk6GJQsqaUBKTNV-1">
          <mxGeometry x="365" y="375" width="50" height="30" as="geometry" />
        </mxCell>
        <mxCell id="V7zFwvD_TTf8r489moun-39" value="" style="endArrow=none;dashed=1;html=1;dashPattern=1 3;strokeWidth=2;rounded=0;fontFamily=Verdana;exitX=0;exitY=0.25;exitDx=0;exitDy=0;" edge="1" parent="WIyWlLk6GJQsqaUBKTNV-1" source="V7zFwvD_TTf8r489moun-27" target="V7zFwvD_TTf8r489moun-49">
          <mxGeometry width="50" height="50" relative="1" as="geometry">
            <mxPoint x="250" y="350" as="sourcePoint" />
            <mxPoint x="360" y="650" as="targetPoint" />
            <Array as="points">
              <mxPoint x="250" y="360" />
              <mxPoint x="250" y="670" />
            </Array>
          </mxGeometry>
        </mxCell>
        <mxCell id="V7zFwvD_TTf8r489moun-40" value="NO" style="text;html=1;align=center;verticalAlign=middle;resizable=0;points=[];autosize=1;strokeColor=none;fillColor=none;fontFamily=Verdana;" vertex="1" parent="WIyWlLk6GJQsqaUBKTNV-1">
          <mxGeometry x="280" y="330" width="40" height="30" as="geometry" />
        </mxCell>
        <mxCell id="V7zFwvD_TTf8r489moun-44" value="" style="edgeStyle=none;rounded=0;orthogonalLoop=1;jettySize=auto;html=1;fontFamily=Verdana;" edge="1" parent="WIyWlLk6GJQsqaUBKTNV-1" source="V7zFwvD_TTf8r489moun-41" target="V7zFwvD_TTf8r489moun-43">
          <mxGeometry relative="1" as="geometry" />
        </mxCell>
        <mxCell id="V7zFwvD_TTf8r489moun-41" value="series = series + &quot;&quot; + i*i" style="whiteSpace=wrap;html=1;fontFamily=Verdana;" vertex="1" parent="WIyWlLk6GJQsqaUBKTNV-1">
          <mxGeometry x="309" y="450" width="131" height="50" as="geometry" />
        </mxCell>
        <mxCell id="V7zFwvD_TTf8r489moun-47" value="" style="edgeStyle=none;rounded=0;orthogonalLoop=1;jettySize=auto;html=1;fontFamily=Verdana;" edge="1" parent="WIyWlLk6GJQsqaUBKTNV-1" source="V7zFwvD_TTf8r489moun-43" target="V7zFwvD_TTf8r489moun-46">
          <mxGeometry relative="1" as="geometry" />
        </mxCell>
        <mxCell id="V7zFwvD_TTf8r489moun-43" value="print &quot;series =&quot; + series" style="whiteSpace=wrap;html=1;fontFamily=Verdana;" vertex="1" parent="WIyWlLk6GJQsqaUBKTNV-1">
          <mxGeometry x="309" y="510" width="120" height="40" as="geometry" />
        </mxCell>
        <mxCell id="V7zFwvD_TTf8r489moun-46" value="i = i + 1" style="whiteSpace=wrap;html=1;fontFamily=Verdana;" vertex="1" parent="WIyWlLk6GJQsqaUBKTNV-1">
          <mxGeometry x="309" y="560" width="120" height="30" as="geometry" />
        </mxCell>
        <mxCell id="V7zFwvD_TTf8r489moun-51" value="" style="edgeStyle=none;rounded=0;orthogonalLoop=1;jettySize=auto;html=1;fontFamily=Verdana;" edge="1" parent="WIyWlLk6GJQsqaUBKTNV-1" source="V7zFwvD_TTf8r489moun-49" target="V7zFwvD_TTf8r489moun-50">
          <mxGeometry relative="1" as="geometry" />
        </mxCell>
        <mxCell id="V7zFwvD_TTf8r489moun-49" value="print sum" style="rounded=1;whiteSpace=wrap;html=1;fontFamily=Verdana;" vertex="1" parent="WIyWlLk6GJQsqaUBKTNV-1">
          <mxGeometry x="330" y="650" width="120" height="40" as="geometry" />
        </mxCell>
        <mxCell id="V7zFwvD_TTf8r489moun-50" value="end" style="ellipse;whiteSpace=wrap;html=1;fontFamily=Verdana;rounded=1;" vertex="1" parent="WIyWlLk6GJQsqaUBKTNV-1">
          <mxGeometry x="340" y="700" width="90" height="30" as="geometry" />
        </mxCell>
      </root>
    </mxGraphModel>
  </diagram>
</mxfile>
